PathFileType	4	(X/Y/Z)	/Users/niels/Desktop/University/Third Semester/Perception and Action/Exam/Gymnastics Motion Tracking/Code for Gym Tracking/Analyzed Data/Webcam_Backflip/id2_2_pure_Sports2D/id2_2_pure_Sports2D_px_person00.trc
DataRate	CameraRate	NumFrames	NumMarkers	Units	OrigDataRate	OrigDataStartFrame	OrigNumFrames
29.87551867219917	29.87551867219917	12	22	m	29.87551867219917	120	241
Frame#	Time	Hip			RHip			RKnee			RAnkle			RBigToe			RSmallToe			RHeel			LHip			LKnee			LAnkle			LBigToe			LSmallToe			LHeel			Neck			Head			Nose			RShoulder			RElbow			RWrist			LShoulder			LElbow			LWrist		
		X1	Y1	Z1	X2	Y2	Z2	X3	Y3	Z3	X4	Y4	Z4	X5	Y5	Z5	X6	Y6	Z6	X7	Y7	Z7	X8	Y8	Z8	X9	Y9	Z9	X10	Y10	Z10	X11	Y11	Z11	X12	Y12	Z12	X13	Y13	Z13	X14	Y14	Z14	X15	Y15	Z15	X16	Y16	Z16	X17	Y17	Z17	X18	Y18	Z18	X19	Y19	Z19	X20	Y20	Z20	X21	Y21	Z21	X22	Y22	Z22
120	4.016666666666667	0.9888580572272686	-0.22202640409710908	0.0	0.9900690420915577	-0.21656946341947994	0.0	0.8743669474558244	-0.19405317389495474	0.0	0.9407421574001266	-0.13371880624161536	0.0	0.9248382186211869	-0.1479804495365713	0.0	0.9265931350658317	-0.12728951027937008	0.0	0.945559566095202	-0.13529120316233897	0.0	0.9870999917125962	-0.2224983827831925	0.0	0.8855811312809222	-0.20578463535656677	0.0	0.9411000151736397	-0.13990965487927406	0.0	0.9425243399439144	-0.20657306088544775	0.0	0.9416966038556975	-0.18977021982773742	0.0	0.9497263197722488	-0.13758665372005996	0.0	0.8981512620068852	-0.30401441314216554	0.0	0.8621736246742047	-0.3492285074848143	0.0	0.8706916544290618	-0.31372805409930254	0.0	0.9072756802300542	-0.28059528173203596	0.0	0.9403243871809025	-0.22037582672264766	0.0	0.9096042697826311	-0.18345780923429872	0.0	0.9067517997693619	-0.3045721235117869	0.0	0.9352115278513015	-0.22893262928792826	0.0	0.9452406391202602	-0.22920803781419535	0.0
121	4.050138888888889	0.9838717380226211	-0.20827956257714705	0.0	0.9827567447148531	-0.20413813264170183	0.0	0.8639067127866642	-0.2110232883867693	0.0	0.9008182352565504	-0.1357593567252852	0.0	0.8742896964652891	-0.15412315092296763	0.0	0.8760541607747057	-0.13495894248417462	0.0	0.9035852513630681	-0.13321065109960495	0.0	0.9825627986046033	-0.20890514145622485	0.0	0.8814482596593421	-0.22376481902030063	0.0	0.9030582752246101	-0.14168894598137594	0.0	0.8981883442544113	-0.22450017556075735	0.0	0.8935988395466248	-0.2014528099429116	0.0	0.9076397575015946	-0.1347878829466534	0.0	0.9212425923074942	-0.31594454345808887	0.0	0.9008512591234816	-0.3712129737351071	0.0	0.8991415433216492	-0.34007436641945143	0.0	0.9236495823494264	-0.29237587306158863	0.0	0.934001861334128	-0.22394839299080307	0.0	0.8935296573786674	-0.1993322746600574	0.0	0.9292343301839411	-0.3135004320267613	0.0	0.9354835335188204	-0.23363611175470367	0.0	0.9427776378821603	-0.2449551471641153	0.0
122	4.083611111111111	0.9758788306117611	-0.1988116639937021	0.0	0.9727516892326539	-0.19667058453691094	0.0	0.8584915467128263	-0.23250555840649917	0.0	0.8613591129997299	-0.15109631392478592	0.0	0.8271549361676992	-0.17292054134194745	0.0	0.8284745624877844	-0.1567253146396408	0.0	0.8614381491156224	-0.1443012489474954	0.0	0.9745346009234742	-0.1994094595325407	0.0	0.8801753324930971	-0.24416051932098423	0.0	0.8651106015853633	-0.15568612120236852	0.0	0.8540304742273793	-0.2467524226438134	0.0	0.8466621037356139	-0.219567356378902	0.0	0.8652376826179712	-0.1439203121200747	0.0	0.9455643468165105	-0.3254047297074785	0.0	0.94191107287077	-0.38758247042855803	0.0	0.9303898609951157	-0.3629217220931687	0.0	0.9417830819815444	-0.30294542558582027	0.0	0.9285816644306899	-0.23075591794543227	0.0	0.883749533049999	-0.22123962755545776	0.0	0.9525596789627717	-0.32003426810364116	0.0	0.9353156602951114	-0.24072530755820815	0.0	0.9393813749409237	-0.2614551252950274	0.0
123	4.117083333333333	0.9657649257836668	-0.19447004793539027	0.0	0.9613735700253387	-0.19466867918566852	0.0	0.8575847414673035	-0.2580858639204118	0.0	0.8256100634894294	-0.18003252971042225	0.0	0.7877254755673012	-0.2067045337300889	0.0	0.7878442285617455	-0.19357087982593285	0.0	0.8222998499311761	-0.16921817974650213	0.0	0.964272233635435	-0.1948380286048356	0.0	0.8799086546519655	-0.2658060908104674	0.0	0.8301806900820579	-0.1818973425239518	0.0	0.813498634197506	-0.27330190968642054	0.0	0.8050502829719338	-0.24530132179753317	0.0	0.8258465513535198	-0.16583852243886996	0.0	0.969578857429683	-0.3319482121479136	0.0	0.9824398232056273	-0.39752218366603304	0.0	0.9626341399936171	-0.3799421503499359	0.0	0.9611897078075402	-0.31170809909782643	0.0	0.9257438549469414	-0.2421033760201595	0.0	0.8820164242894528	-0.2498745581804731	0.0	0.9750013622976544	-0.3240410413617508	0.0	0.9360699698622114	-0.25121169525000464	0.0	0.9350011514598572	-0.27962444054290286	0.0
124	4.150555555555556	0.9541509406718771	-0.19632741347595473	0.0	0.9496005520266602	-0.19882060371287505	0.0	0.8603149175916721	-0.2873210036050525	0.0	0.7966772153918112	-0.22252315343239165	0.0	0.759727593058908	-0.25605152193147696	0.0	0.7580383449017217	-0.2453762364712842	0.0	0.7893642205344135	-0.20864327000413996	0.0	0.9525496518596901	-0.1962813453104297	0.0	0.8793822612356744	-0.2885930216288703	0.0	0.8009844892492117	-0.22029481907808682	0.0	0.7805723213776489	-0.3060780415126672	0.0	0.7729814437554681	-0.2809528891333319	0.0	0.7925264016583925	-0.20179200103749606	0.0	0.9919859896719874	-0.33561537789294044	0.0	1.0198805125908046	-0.4010092995317556	0.0	0.9938156350705705	-0.3897896553090286	0.0	0.9812759623290254	-0.31861927198047213	0.0	0.9269596303785635	-0.25895968600588054	0.0	0.8878566194798249	-0.28487219409013564	0.0	0.9952028076921949	-0.3257544899879069	0.0	0.9388323817722899	-0.26595299529074373	0.0	0.9308065860657643	-0.3009533478894604	0.0
125	4.184027777777778	0.9417167294863823	-0.20543849915114284	0.0	0.9380740704070435	-0.20966001328075062	0.0	0.8651326107948113	-0.3190737476919288	0.0	0.7769506432505932	-0.27667018105288715	0.0	0.7454814282157524	-0.31796060816115307	0.0	0.7419010475594088	-0.309134601780833	0.0	0.765419862038682	-0.26161545004144865	0.0	0.939978142095482	-0.20487469488941631	0.0	0.8780782162505408	-0.31324172664618344	0.0	0.7798302919387754	-0.2697132129220721	0.0	0.7592864686320348	-0.34741422051463405	0.0	0.753939537699525	-0.32773252246995066	0.0	0.7677851483771164	-0.2516126849789428	0.0	1.0115979440269234	-0.3371356379359505	0.0	1.0522953351367854	-0.3992151496276712	0.0	1.021849888972815	-0.39296083829596684	0.0	1.000932877106328	-0.32406977687649485	0.0	0.9330300167794181	-0.28130617814225567	0.0	0.9001276766273946	-0.3242983820090746	0.0	1.012176194791649	-0.32602590936719633	0.0	0.9440971277812675	-0.28527947811634263	0.0	0.9295965349794534	-0.3270290981879561	0.0
126	4.2175	0.9293845933769339	-0.2225880190615358	0.0	0.9271684395741525	-0.22742183476472808	0.0	0.8701743198726185	-0.35190108458421887	0.0	0.7674627219335389	-0.338626930785793	0.0	0.745255347277611	-0.38683356911041356	0.0	0.7401908173511861	-0.379498619620809	0.0	0.7521084356661801	-0.32490492593100573	0.0	0.927479090640431	-0.22153816905009788	0.0	0.8762095645874708	-0.340877630605117	0.0	0.7684164516232066	-0.3277354515083291	0.0	0.7524036783425818	-0.39803351550699084	0.0	0.7495825287983533	-0.3842568724595325	0.0	0.7533051138576392	-0.3129012007347322	0.0	1.0272731543349025	-0.3378820841616792	0.0	1.078487473293759	-0.3942076598767646	0.0	1.0452036080403382	-0.39172631615120584	0.0	1.0184362667190192	-0.3286604765029125	0.0	0.943830157139975	-0.3079230637903752	0.0	0.9191927066786317	-0.36494700409008074	0.0	1.0251590860625042	-0.32630790301773	0.0	0.9518531977476906	-0.30889763366771494	0.0	0.9349081219610735	-0.35836791471989277	0.0
127	4.250972222222222	0.9180201443630267	-0.24801187054692428	0.0	0.9170850252398624	-0.2521683641443154	0.0	0.8741393225656857	-0.3852884783191457	0.0	0.7677045220764953	-0.4040262883266242	0.0	0.7572701186254899	-0.45703856241290935	0.0	0.7512907413768235	-0.45097706531989523	0.0	0.7494895052189007	-0.39395945808261607	0.0	0.9161461081745266	-0.24664311956245888	0.0	0.8744629140185697	-0.3726042205494558	0.0	0.7675422224588206	-0.39152767106142145	0.0	0.7602193498157321	-0.4561125514795837	0.0	0.7592720258468109	-0.44707156127741876	0.0	0.749784402665646	-0.3819518702181898	0.0	1.0381653919977023	-0.33960594535417943	0.0	1.0979289426413466	-0.38816068929336167	0.0	1.0631588007445654	-0.38904361851277725	0.0	1.0319271461304023	-0.3333534354608712	0.0	0.9585074855635254	-0.33691230741228456	0.0	0.9460405754346911	-0.4030804238933314	0.0	1.0335893521772208	-0.32836017789439115	0.0	0.9618624642642417	-0.3359061608796898	0.0	0.9489343077525602	-0.39301829676256317	0.0
128	4.2844444444444445	0.9080890993988882	-0.2813017713569846	0.0	0.9080030473577593	-0.28390569564991414	0.0	0.8767412175914328	-0.42020149099445203	0.0	0.7760165691906884	-0.4696398561077613	0.0	0.778378437569573	-0.5247974998046655	0.0	0.7719052510426617	-0.5198407654747961	0.0	0.7562466564188962	-0.46468282636959135	0.0	0.9067024813741438	-0.27981766167468963	0.0	0.8735848065507908	-0.40919624632243823	0.0	0.7766786276913008	-0.4584907036082937	0.0	0.7804630931046185	-0.5181585229014706	0.0	0.7803255623680951	-0.5122114066606817	0.0	0.7567408009664599	-0.45507197208138517	0.0	1.0440046987773806	-0.34409837228562584	0.0	1.1106163353252103	-0.3829484061449989	0.0	1.0756372162813168	-0.3875458784533979	0.0	1.0400719327503354	-0.3396948741124046	0.0	0.9758011502402938	-0.36638661007491086	0.0	0.9797543295204202	-0.435286963050709	0.0	1.0372461457500495	-0.33384603131953716	0.0	0.9737448175063377	-0.3646980085066306	0.0	0.9709712553553862	-0.4266553242077888	0.0
129	4.317916666666667	0.8996949098602384	-0.3215745060472628	0.0	0.9001777030605238	-0.3224795269335118	0.0	0.8784183817024769	-0.4583266605764089	0.0	0.7903102992002209	-0.5340928204474328	0.0	0.8049896403870038	-0.5885262187115653	0.0	0.7982058800168809	-0.5846397639447445	0.0	0.7703529759809393	-0.5346683572375641	0.0	0.8992642768486734	-0.3200806719454512	0.0	0.8740257628624772	-0.4508881303480505	0.0	0.7936426745708374	-0.526322558052987	0.0	0.8089133968152787	-0.5805200301703788	0.0	0.8084404217859706	-0.5762575081850542	0.0	0.7723552821236076	-0.529009219347844	0.0	1.045043726998292	-0.35288778969945894	0.0	1.1169189032823887	-0.3802393192166595	0.0	1.0829371427821846	-0.3891993915469514	0.0	1.042449234959325	-0.3495840584227824	0.0	0.994047207807302	-0.3947594538040486	0.0	1.0166776478757145	-0.4593222132813744	0.0	1.036375115201639	-0.3439871070468745	0.0	0.9867685716774802	-0.39316118266387406	0.0	0.9976183899910358	-0.45461945565984885	0.0
130	4.351388888888889	0.8928822617597528	-0.3676351959774766	0.0	0.8939228687884666	-0.3673099357455187	0.0	0.8798990750911391	-0.5009984562980626	0.0	0.8085014816121382	-0.597227895947853	0.0	0.8335939639102659	-0.6480674533053639	0.0	0.8265773908231236	-0.6454443678107301	0.0	0.7894942525846097	-0.6028546809343139	0.0	0.8936268959771939	-0.3661245389511621	0.0	0.8758025327279932	-0.4973102946137157	0.0	0.8147977524077809	-0.5929934422718378	0.0	0.8402238092510554	-0.6404865309543625	0.0	0.8383976433087454	-0.6369042672694208	0.0	0.7934647120460689	-0.6008402345244923	0.0	1.041851854687049	-0.3669762404607529	0.0	1.1174280108408587	-0.38162890751200734	0.0	1.0855038783446573	-0.3953168031376154	0.0	1.039540270229547	-0.3646332970814644	0.0	1.011117762650342	-0.42080353923791153	0.0	1.051359106437951	-0.4745230170674859	0.0	1.0317050545367406	-0.35940611176315634	0.0	0.999863037788813	-0.4193370697181306	0.0	1.0242905968080922	-0.4738902208591729	0.0
131	4.384861111111111	0.8878463019192934	-0.4180243474614314	0.0	0.8894740737364627	-0.4171843836641999	0.0	0.8819490339681022	-0.548523876105936	0.0	0.8282610560382545	-0.658821863816324	0.0	0.8607741203202588	-0.7036988826625691	0.0	0.8536097178931819	-0.702644180301138	0.0	0.8108940963277105	-0.6682194566849066	0.0	0.8897170040250351	-0.4165190929231116	0.0	0.8787677910967976	-0.5475369654999994	0.0	0.8360317377334996	-0.6568389340238058	0.0	0.8691329487783712	-0.6967049320200998	0.0	0.8652662492608235	-0.6931968166856671	0.0	0.8159497824530865	-0.6678976335886344	0.0	1.0351807484177984	-0.38663091863624116	0.0	1.1128267563222878	-0.38850036924515796	0.0	1.083738933064947	-0.40660781036503874	0.0	1.0324153315485216	-0.3855042298786842	0.0	1.0248113068608675	-0.44373383702638935	0.0	1.0783444418426655	-0.48166658616379643	0.0	1.0242416913980912	-0.3802380723522854	0.0	1.0118368249047798	-0.44202566633192636	0.0	1.0465715056390943	-0.4837264893886694	0.0
